<svg xmlns="http://www.w3.org/2000/svg" width="640" height="420" viewBox="0 0 640 420">
  <rect width="640" height="420" fill="#AF001E"/>
  <g fill="#FFF">
    <path d="M477.1 190.8v-42.1h81.1c6.2 0 8.1-2.2 8.1-8.4v-21.7c0-6.2-1.9-8.4-8.1-8.4H440.5c-6.2 0-8.1 2.2-8.1 8.4V301c0 6.2 1.9 8.4 8.1 8.4H469c6.2 0 8.1-2.2 8.1-8.4v-71.9h73.7c6.2 0 8.1-2.2 8.1-8.4V199c0-6.2-1.9-8.4-8.1-8.4h-73.7z"/>
    <path d="M317.1 206.6l-3.1 13c-.9 3.7-1.2 5.6-1.2 6.8 0 3.1.9 5.6 3.1 9.3l36.8 66.3c3.1 5.3 5.6 7.4 13 7.4h33.8c4.3 0 9.6-2.8 4.7-10.5l-45.2-75c15.2-9.6 32.2-23.2 32.2-53.3 0-38.7-21.7-60.4-69.4-60.4h-69.1c-6.2 0-8.1 2.2-8.1 8.4V301c0 6.2 1.9 8.4 8.1 8.4h28.5c6.2 0 8.1-2.2 8.1-8.4V147.1h29.4c18.6 0 27.6 6.8 27.6 24.2 0 15.8-7.1 20.8-14.2 23.8-9.1 3.8-12.2-.3-15 11.5z"/>
    <path d="M77.5 277.5l-3.7 23.8c-.6 4.7 1.6 6.5 5.6 7.1 9 1.2 31.6 2.8 53.6 2.8 49.3 0 85.2-16.1 85.2-61.9 0-26.9-11.8-47.1-52.6-57.6l-22.9-5.9c-15.5-4-22.6-9-22.6-20.4 0-16.1 14.9-19.2 29.1-19.2 19.2 0 38.7 1.5 46.5 2.2 8.1.6 10.2-.3 11.5-7.1l3.7-23.2c.6-4.6-1.6-6.5-5.6-7.1-9-1.2-28.8-2.8-53.9-2.8-51.1 0-75.9 22.3-75.9 57.6 0 31.9 17.3 50.8 47.4 58.5l22.9 5.9c18.9 5 26.9 10.5 26.9 22.3 0 17.3-11.8 20.4-40.3 20.4-13 0-35.6-1.9-43.3-2.5-8.2-.6-10.3.3-11.6 7.1z"/>
  </g>
</svg>