<svg version="1.1" xmlns="http://www.w3.org/2000/svg" width="290" height="100" viewBox="0 0 290 100">
<rect fill="#AF001E" width="290" height="100"/>
<path fill="#FFFFFF" d="M51.902,59.394c0,10.907-8.547,14.738-20.263,14.738c-5.23,0-10.609-0.369-12.746-0.663
	c-0.958-0.148-1.474-0.59-1.328-1.694l0.886-5.674c0.294-1.621,0.81-1.842,2.724-1.695c1.842,0.148,7.221,0.59,10.316,0.59
	c6.779,0,9.58-0.737,9.58-4.863c0-2.801-1.916-4.127-6.411-5.306l-5.45-1.4c-7.15-1.841-11.274-6.336-11.274-13.927
	c0-8.401,5.895-13.705,18.051-13.705c5.969,0,10.686,0.368,12.822,0.664c0.958,0.146,1.474,0.588,1.326,1.694l-0.884,5.526
	c-0.294,1.621-0.81,1.842-2.727,1.696c-1.842-0.148-6.485-0.516-11.052-0.516c-3.391,0-6.928,0.736-6.928,4.569
	c0,2.727,1.694,3.905,5.379,4.864l5.453,1.4C49.101,48.195,51.902,52.984,51.902,59.394z M85.429,53.354
	c3.611-2.285,7.664-5.527,7.664-12.676c0-9.211-5.157-14.369-16.506-14.369H60.154c-1.472,0-1.915,0.516-1.915,1.989v43.403
	c0,1.474,0.443,1.989,1.915,1.989h6.779c1.475,0,1.917-0.515,1.917-1.989V35.078h7.002c4.421,0,6.557,1.622,6.557,5.748
	c0,3.758-1.694,4.938-3.391,5.674c-2.136,0.885-2.872-0.074-3.536,2.727l-0.737,3.095c-0.222,0.884-0.294,1.326-0.294,1.621
	c0,0.737,0.22,1.326,0.736,2.21l8.768,15.77c0.739,1.254,1.329,1.768,3.097,1.768h8.032c1.03,0,2.285-0.663,1.104-2.506
	L85.429,53.354z M135.905,45.248H123.82c-1.475,0-1.917,0.516-1.917,1.989v5.084c0,1.474,0.442,1.99,1.917,1.99h3.463v10.317
	c-0.442,0.073-1.917,0.146-3.611,0.146c-10.02,0-12.601-6.483-12.601-15.399c0-11.276,4.275-14.151,13.559-14.151
	c2.801,0,6.558,0.222,8.696,0.368c1.914,0.148,2.43-0.073,2.727-1.694l0.884-5.305c0.22-1.474-0.074-2.136-1.623-2.284
	c-0.516-0.074-3.831-0.516-11.42-0.516c-17.319,0-24.318,8.916-24.318,23.583c0,14.515,5.748,24.831,23.653,24.831
	c8.032,0,11.055-0.368,12.601-0.736c1.549-0.368,1.99-0.958,1.99-2.578V47.237C137.821,45.764,137.38,45.248,135.905,45.248z
	 M177.193,45.69l-5.453-1.4c-3.685-0.959-5.379-2.137-5.379-4.864c0-3.833,3.537-4.569,6.927-4.569
	c4.567,0,9.209,0.368,11.051,0.516c1.917,0.147,2.433-0.074,2.727-1.696l0.884-5.526c0.148-1.107-0.368-1.549-1.326-1.694
	c-2.137-0.297-6.853-0.664-12.823-0.664c-12.155,0-18.047,5.304-18.047,13.705c0,7.592,4.124,12.086,11.27,13.927l5.451,1.4
	c4.494,1.179,6.411,2.505,6.411,5.306c0,4.126-2.8,4.863-9.58,4.863c-3.094,0-8.472-0.442-10.312-0.59
	c-1.915-0.147-2.43,0.074-2.724,1.695l-0.887,5.674c-0.146,1.104,0.37,1.546,1.328,1.694c2.136,0.294,7.511,0.663,12.743,0.663
	c11.715,0,20.263-3.831,20.263-14.738C189.72,52.984,186.919,48.195,177.193,45.69z M215.288,45.69l-5.45-1.4
	c-3.685-0.959-5.379-2.137-5.379-4.864c0-3.833,3.537-4.569,6.925-4.569c4.569,0,9.212,0.368,11.054,0.516
	c1.914,0.147,2.431-0.074,2.724-1.696l0.884-5.526c0.149-1.107-0.368-1.549-1.326-1.694c-2.137-0.297-6.851-0.664-12.82-0.664
	c-12.158,0-18.053,5.304-18.053,13.705c0,7.592,4.126,12.086,11.274,13.927l5.453,1.4c4.494,1.179,6.411,2.505,6.411,5.306
	c0,4.126-2.801,4.863-9.58,4.863c-3.094,0-8.474-0.442-10.316-0.59c-1.917-0.147-2.433,0.074-2.727,1.695l-0.884,5.674
	c-0.148,1.104,0.368,1.546,1.326,1.694c2.137,0.294,7.515,0.663,12.749,0.663c11.716,0,20.263-3.831,20.263-14.738
	C227.816,52.984,225.015,48.195,215.288,45.69z M272.102,71.185l-10.759-17.832c3.611-2.285,7.664-5.527,7.664-12.676
	c0-9.211-5.159-14.369-16.508-14.369h-16.431c-1.474,0-1.917,0.516-1.917,1.989v43.403c0,1.474,0.442,1.989,1.917,1.989h6.78
	c1.475,0,1.917-0.515,1.917-1.989V35.078h6.999c4.421,0,6.557,1.622,6.557,5.748c0,3.758-1.694,4.938-3.388,5.674
	c-2.137,0.885-2.875-0.074-3.537,2.727l-0.739,3.095c-0.22,0.884-0.294,1.326-0.294,1.621c0,0.737,0.222,1.326,0.738,2.21
	l8.768,15.77c0.736,1.254,1.327,1.768,3.095,1.768h8.032C272.028,73.691,273.28,73.028,272.102,71.185z"/>
</svg>